M48
; DRILL file {KiCad (5.1.1)-1} date 19/04/2019 17:17:21
; FORMAT={-:-/ absolute / inch / decimal}
; #@! TF.CreationDate,2019-04-19T17:17:21+02:00
; #@! TF.GenerationSoftware,Kicad,Pcbnew,(5.1.1)-1
FMAT,2
INCH
T1C0.0394
T2C0.1260
T3C0.1260
%
G90
G05
T1
X4.65Y-2.35
X7.65Y-4.95
X7.55Y-5.05
X7.55Y-4.85
X7.55Y-4.75
X7.55Y-4.65
X7.55Y-4.55
X7.55Y-4.95
X6.85Y-4.75
X6.75Y-4.65
X7.05Y-4.65
X6.85Y-4.65
X7.15Y-4.65
X7.25Y-4.65
X6.75Y-4.75
X7.05Y-4.75
X6.95Y-4.75
X7.35Y-4.75
X6.95Y-4.65
X7.25Y-4.75
X6.05Y-4.65
X6.35Y-4.65
X6.45Y-4.65
X6.55Y-4.65
X6.05Y-4.75
X4.75Y-3.15
X4.85Y-3.15
X4.65Y-3.25
X4.95Y-3.25
X4.85Y-3.25
X4.75Y-3.25
X4.95Y-3.15
X5.15Y-3.25
X4.35Y-3.15
X4.35Y-2.95
X4.35Y-2.85
X4.35Y-3.25
X4.35Y-3.35
X4.35Y-2.75
X4.35Y-2.65
X4.35Y-3.65
X4.35Y-3.75
X4.35Y-3.55
X4.35Y-3.45
X4.35Y-3.05
X5.05Y-3.15
X5.35Y-3.15
X5.15Y-3.15
X5.45Y-3.15
X5.15Y-5.95
X5.05Y-5.95
X4.65Y-5.95
X5.55Y-5.85
X4.95Y-5.95
X4.75Y-5.95
X5.65Y-5.85
X5.65Y-5.95
X5.25Y-5.85
X5.65Y-5.75
X5.25Y-5.95
X5.35Y-5.85
X5.05Y-5.85
X5.45Y-5.95
X4.85Y-5.95
X5.35Y-5.95
X5.55Y-5.95
X5.45Y-5.85
X5.25Y-5.75
X7.75Y-5.55
X7.75Y-5.65
X7.75Y-5.45
X7.75Y-5.35
X7.75Y-4.95
X6.25Y-5.65
X6.05Y-5.65
X7.65Y-5.15
X7.65Y-5.25
X7.65Y-5.55
X7.65Y-5.65
X7.65Y-5.45
X7.65Y-5.35
X7.55Y-5.15
X7.55Y-5.25
X7.55Y-5.55
X7.55Y-5.65
X7.55Y-5.45
X7.55Y-5.35
X7.65Y-5.05
X7.65Y-4.85
X7.65Y-4.75
X7.65Y-4.65
X7.65Y-4.55
X5.55Y-2.55
X5.05Y-2.65
X5.35Y-2.65
X5.25Y-2.65
X5.65Y-2.65
X5.25Y-2.55
X5.55Y-2.65
X5.45Y-2.65
X5.65Y-2.55
X5.65Y-2.95
X5.45Y-3.05
X5.55Y-3.05
X5.25Y-2.95
X5.65Y-3.05
X5.25Y-3.05
X5.35Y-3.05
X5.05Y-3.05
X5.55Y-2.95
X5.45Y-2.95
X5.15Y-2.95
X5.35Y-2.95
X5.05Y-2.95
X5.15Y-3.05
X5.05Y-2.45
X5.35Y-2.45
X5.25Y-2.45
X5.65Y-2.45
X5.25Y-2.35
X5.55Y-2.45
X5.45Y-2.45
X5.65Y-2.35
X4.65Y-2.55
X4.75Y-2.55
X4.85Y-2.55
X4.75Y-2.35
X4.85Y-2.35
X4.65Y-2.45
X4.95Y-2.45
X4.85Y-2.45
X4.75Y-2.45
X4.95Y-2.35
X5.15Y-2.45
X5.05Y-2.35
X5.35Y-2.35
X5.15Y-2.35
X5.45Y-2.35
X5.55Y-2.35
X5.45Y-3.75
X5.25Y-5.65
X5.65Y-5.65
X5.65Y-5.25
X5.45Y-5.35
X5.55Y-5.35
X5.25Y-5.25
X5.65Y-5.35
X5.25Y-5.35
X5.35Y-5.35
X5.05Y-5.35
X5.55Y-5.25
X5.45Y-5.25
X5.15Y-5.25
X5.35Y-5.25
X5.05Y-5.25
X5.15Y-5.35
X4.45Y-5.15
X4.35Y-5.05
X4.65Y-5.05
X4.45Y-5.05
X4.75Y-5.05
X4.85Y-5.05
X4.35Y-5.15
X4.65Y-5.15
X4.55Y-5.15
X4.95Y-5.15
X4.55Y-5.05
X4.85Y-5.15
X4.75Y-5.15
X4.95Y-5.05
X5.15Y-5.15
X5.75Y-5.05
X5.75Y-4.85
X5.75Y-4.75
X5.75Y-5.15
X5.75Y-5.25
X5.75Y-4.65
X5.75Y-4.55
X5.75Y-5.55
X5.75Y-5.65
X5.75Y-5.45
X5.75Y-5.35
X5.75Y-4.95
X5.05Y-5.05
X5.35Y-5.05
X5.15Y-5.05
X5.45Y-5.05
X5.55Y-5.05
X5.55Y-3.75
X5.05Y-3.85
X5.35Y-3.85
X5.25Y-3.85
X5.65Y-3.85
X5.25Y-3.75
X5.55Y-3.85
X5.45Y-3.85
X5.65Y-3.75
X5.65Y-3.35
X5.45Y-3.45
X5.55Y-3.45
X5.25Y-3.35
X5.65Y-3.45
X5.25Y-3.45
X5.35Y-3.45
X5.05Y-3.45
X5.55Y-3.35
X5.45Y-3.35
X5.15Y-3.35
X5.35Y-3.35
X5.05Y-3.35
X5.15Y-3.45
X4.65Y-3.15
X7.05Y-5.85
X7.35Y-5.85
X7.25Y-5.85
X7.65Y-5.85
X7.25Y-5.75
X7.55Y-5.85
X7.45Y-5.85
X7.65Y-5.75
X5.75Y-5.95
X6.65Y-5.95
X6.75Y-5.95
X6.85Y-5.95
X5.75Y-5.75
X5.75Y-5.85
X6.65Y-5.75
X6.75Y-5.75
X6.85Y-5.75
X6.65Y-5.85
X6.55Y-5.85
X6.95Y-5.85
X6.55Y-5.75
X6.85Y-5.85
X6.75Y-5.85
X6.95Y-5.75
X6.65Y-4.45
X6.55Y-4.45
X6.65Y-4.35
X6.65Y-4.25
X6.55Y-4.25
X6.85Y-4.25
X6.75Y-4.25
X7.05Y-4.25
X6.95Y-4.25
X7.35Y-4.25
X7.25Y-4.25
X7.15Y-4.25
X7.45Y-4.45
X7.45Y-4.35
X7.45Y-4.25
X7.15Y-4.45
X7.35Y-4.35
X7.95Y-5.15
X7.95Y-5.25
X7.95Y-5.55
X7.95Y-5.65
X7.95Y-5.45
X7.95Y-5.35
X7.85Y-5.15
X5.25Y-4.55
X5.65Y-4.55
X5.25Y-4.45
X5.55Y-4.55
X5.45Y-4.55
X5.65Y-4.45
X5.65Y-4.85
X5.45Y-4.95
X5.55Y-4.95
X5.25Y-4.85
X5.65Y-4.95
X5.25Y-4.95
X5.35Y-4.95
X5.05Y-4.95
X5.55Y-4.85
X5.45Y-4.85
X5.15Y-4.85
X5.35Y-4.85
X5.05Y-4.85
X5.15Y-4.95
X5.05Y-4.35
X5.35Y-4.35
X5.25Y-4.35
X5.65Y-4.35
X5.25Y-4.25
X5.55Y-4.35
X5.45Y-4.35
X5.65Y-4.25
X4.45Y-4.55
X4.65Y-4.45
X4.75Y-4.45
X4.85Y-4.45
X4.65Y-4.25
X4.75Y-4.25
X4.85Y-4.25
X4.65Y-4.35
X4.95Y-4.35
X4.85Y-4.35
X4.75Y-4.35
X4.95Y-4.25
X5.15Y-4.35
X5.05Y-4.25
X5.35Y-4.25
X5.15Y-4.25
X5.45Y-4.25
X5.55Y-4.25
X5.45Y-5.65
X5.55Y-5.65
X7.25Y-5.05
X6.75Y-5.15
X7.05Y-5.15
X6.95Y-5.15
X7.35Y-5.15
X6.95Y-5.05
X7.25Y-5.15
X7.15Y-5.15
X7.35Y-5.05
X6.05Y-5.25
X6.35Y-5.25
X6.45Y-4.95
X6.65Y-4.85
X6.65Y-5.65
X6.55Y-5.65
X6.45Y-5.65
X6.35Y-5.65
X7.35Y-5.45
X7.15Y-5.55
X7.25Y-5.55
X6.95Y-5.45
X7.35Y-5.55
X6.95Y-5.55
X7.05Y-5.55
X5.85Y-5.45
X5.85Y-5.35
X5.95Y-5.05
X5.95Y-4.85
X5.95Y-4.75
X5.95Y-4.65
X5.95Y-4.55
X5.95Y-4.95
X5.85Y-5.05
X5.85Y-4.85
X5.85Y-4.75
X5.85Y-4.65
X5.85Y-4.55
X5.85Y-4.95
X5.15Y-4.75
X5.05Y-4.65
X5.35Y-4.65
X5.15Y-4.65
X5.45Y-4.65
X5.55Y-4.65
X5.05Y-4.75
X5.35Y-4.75
X5.25Y-4.75
X5.65Y-4.75
X6.35Y-5.15
X6.25Y-5.15
X6.65Y-5.15
X6.25Y-5.05
X6.55Y-5.15
X6.45Y-5.15
X6.65Y-5.05
X6.85Y-5.15
X7.45Y-5.05
X7.45Y-4.85
X7.45Y-4.75
X7.45Y-5.15
X7.45Y-5.25
X7.45Y-4.65
X7.45Y-4.55
X7.45Y-5.55
X7.45Y-5.65
X7.45Y-5.45
X7.45Y-5.35
X7.45Y-4.95
X6.75Y-5.05
X7.05Y-5.05
X6.85Y-5.05
X7.15Y-5.05
X5.25Y-4.65
X5.55Y-4.75
X4.45Y-4.75
X4.35Y-4.65
X4.65Y-4.65
X4.45Y-4.65
X4.75Y-4.65
X4.85Y-4.65
X4.35Y-4.75
X4.65Y-4.75
X4.55Y-4.75
X4.95Y-4.75
X4.55Y-4.65
X4.85Y-4.75
X4.75Y-4.75
X4.95Y-4.65
X4.95Y-5.45
X4.75Y-5.55
X4.85Y-5.55
X4.55Y-5.45
X4.95Y-5.55
X4.55Y-5.55
X4.65Y-5.55
X4.35Y-5.55
X4.85Y-5.45
X4.75Y-5.45
X4.45Y-5.45
X4.65Y-5.45
X4.35Y-5.45
X4.45Y-5.55
X5.05Y-5.65
X5.35Y-5.65
X5.15Y-5.65
X4.35Y-4.55
X4.65Y-4.55
X4.55Y-4.55
X4.95Y-4.55
X4.85Y-4.55
X4.75Y-4.55
X4.95Y-4.45
X5.15Y-4.55
X5.05Y-4.45
X5.35Y-4.45
X5.15Y-4.45
X5.45Y-4.45
X5.55Y-4.45
X5.05Y-4.55
X5.35Y-4.55
X4.45Y-3.15
X4.45Y-2.95
X4.45Y-2.85
X4.45Y-2.75
X4.45Y-2.65
X4.45Y-3.05
X5.15Y-2.85
X5.05Y-2.75
X5.35Y-2.75
X5.15Y-2.75
X5.45Y-2.75
X5.55Y-2.75
X5.05Y-2.85
X5.35Y-2.85
X5.25Y-2.85
X5.65Y-2.85
X5.25Y-2.75
X5.55Y-2.85
X4.65Y-2.75
X4.75Y-2.75
X4.85Y-2.75
X4.65Y-2.85
X4.95Y-2.85
X4.85Y-2.85
X4.75Y-2.85
X4.95Y-2.75
X4.95Y-3.55
X4.75Y-3.65
X4.85Y-3.65
X4.95Y-3.65
X4.65Y-3.65
X4.85Y-3.55
X4.75Y-3.55
X4.65Y-3.55
X5.15Y-3.85
X5.05Y-3.75
X5.35Y-3.75
X5.15Y-3.75
X4.65Y-2.65
X4.95Y-2.65
X4.85Y-2.65
X4.75Y-2.65
X4.95Y-2.55
X5.15Y-2.65
X5.05Y-2.55
X5.35Y-2.55
X5.15Y-2.55
X5.45Y-2.55
X5.55Y-3.15
X5.05Y-3.25
X5.35Y-3.25
X5.25Y-3.25
X5.65Y-3.25
X5.25Y-3.15
X5.55Y-3.25
X5.45Y-3.25
X5.65Y-3.15
X4.65Y-3.35
X4.75Y-3.05
X4.95Y-2.95
X4.95Y-3.75
X4.75Y-3.85
X4.85Y-3.85
X4.95Y-3.85
X4.65Y-3.85
X4.85Y-3.75
X4.75Y-3.75
X4.65Y-3.75
X5.65Y-3.55
X5.45Y-3.65
X5.55Y-3.65
X5.25Y-3.55
X5.65Y-3.65
X5.25Y-3.65
X5.35Y-3.65
X5.05Y-3.65
X5.55Y-3.55
X5.45Y-3.55
X5.15Y-3.55
X5.35Y-3.55
X5.05Y-3.55
X5.15Y-3.65
X5.45Y-2.85
X5.65Y-2.75
X4.65Y-2.95
X4.75Y-2.95
X4.85Y-2.95
X4.65Y-3.05
X4.95Y-3.05
X4.85Y-3.05
X4.75Y-3.35
X4.85Y-3.35
X4.65Y-3.45
X4.95Y-3.45
X4.85Y-3.45
X4.75Y-3.45
X4.95Y-3.35
X6.55Y-4.05
X6.55Y-3.95
X6.55Y-3.85
X6.55Y-3.75
X6.35Y-3.75
X6.25Y-3.75
X6.45Y-3.75
X6.05Y-3.75
X5.95Y-3.75
X5.85Y-3.75
X5.75Y-3.75
X7.15Y-4.05
X7.05Y-4.05
X7.35Y-4.05
X7.25Y-4.05
X7.65Y-4.05
X7.55Y-4.05
X7.45Y-4.05
X6.75Y-4.05
X6.85Y-4.05
X6.95Y-4.05
X6.65Y-4.05
X7.15Y-3.95
X7.05Y-3.95
X7.35Y-3.95
X7.25Y-3.95
X7.65Y-3.95
X7.55Y-3.95
X7.45Y-3.95
X6.75Y-3.95
X6.85Y-3.95
X6.95Y-3.95
X6.65Y-3.95
X7.95Y-3.25
X7.95Y-3.35
X7.95Y-3.65
X7.95Y-3.75
X7.95Y-3.55
X7.95Y-3.45
X7.85Y-3.25
X7.85Y-3.35
X7.85Y-3.65
X7.85Y-3.75
X7.85Y-3.55
X7.85Y-3.45
X7.95Y-3.15
X7.95Y-2.95
X6.35Y-4.75
X6.25Y-4.75
X6.65Y-4.75
X6.25Y-4.65
X6.55Y-4.75
X6.45Y-4.75
X6.65Y-4.65
X6.65Y-5.45
X6.45Y-5.55
X6.55Y-5.55
X6.25Y-5.45
X6.65Y-5.55
X6.25Y-5.55
X6.35Y-5.55
X6.05Y-5.55
X6.55Y-5.45
X6.45Y-5.45
X6.35Y-5.45
X6.05Y-5.45
X6.75Y-5.65
X7.05Y-5.65
X6.85Y-5.65
X6.05Y-4.55
X6.35Y-4.55
X7.15Y-5.85
X7.05Y-5.75
X7.35Y-5.75
X7.15Y-5.75
X7.45Y-5.75
X7.55Y-5.75
X7.65Y-4.45
X7.65Y-4.35
X7.65Y-4.25
X7.55Y-4.45
X7.55Y-4.35
X7.55Y-4.25
X6.85Y-4.45
X7.05Y-4.35
X6.85Y-4.35
X7.15Y-4.35
X7.25Y-4.35
X6.75Y-4.45
X7.05Y-4.45
X6.95Y-4.45
X7.35Y-4.45
X6.95Y-4.35
X7.25Y-4.45
X6.55Y-4.35
X6.75Y-5.55
X7.25Y-5.45
X7.15Y-5.45
X6.85Y-5.45
X7.05Y-5.45
X6.75Y-5.45
X6.85Y-5.55
X7.15Y-4.75
X7.35Y-4.65
X6.05Y-4.85
X6.35Y-4.85
X6.45Y-4.85
X6.55Y-4.85
X6.05Y-4.95
X6.35Y-4.95
X6.25Y-4.95
X6.65Y-4.95
X6.25Y-4.85
X6.55Y-4.95
X6.45Y-5.25
X6.55Y-5.25
X6.05Y-5.35
X6.35Y-5.35
X6.25Y-5.35
X6.25Y-4.55
X6.65Y-4.55
X6.55Y-4.55
X6.45Y-4.55
X6.85Y-4.55
X6.75Y-4.55
X7.05Y-4.55
X6.95Y-4.55
X7.35Y-4.55
X7.25Y-4.55
X7.15Y-4.55
X7.35Y-4.85
X7.15Y-4.95
X7.25Y-4.95
X6.95Y-4.85
X7.35Y-4.95
X6.95Y-4.95
X7.05Y-4.95
X6.75Y-4.95
X7.25Y-4.85
X7.15Y-4.85
X6.85Y-4.85
X7.05Y-4.85
X6.75Y-4.85
X4.35Y-5.35
X4.65Y-5.35
X4.55Y-5.35
X4.95Y-5.35
X4.55Y-5.25
X4.85Y-5.35
X4.75Y-5.35
X4.95Y-5.25
X5.15Y-4.05
X5.05Y-4.05
X5.35Y-4.05
X5.25Y-4.05
X5.65Y-4.05
X5.55Y-4.05
X5.45Y-4.05
X4.75Y-4.05
X4.85Y-4.05
X4.95Y-4.05
X4.65Y-4.05
X5.15Y-3.95
X5.05Y-3.95
X5.35Y-3.95
X5.25Y-3.95
X5.65Y-3.95
X5.55Y-3.95
X5.45Y-3.95
X4.75Y-3.95
X4.85Y-3.95
X4.95Y-3.95
X4.65Y-3.95
X4.55Y-3.25
X4.55Y-3.35
X4.55Y-3.65
X4.55Y-3.75
X4.55Y-3.55
X4.55Y-3.45
X4.45Y-3.25
X4.45Y-3.35
X4.45Y-3.65
X4.45Y-3.75
X4.45Y-3.55
X4.45Y-3.45
X4.55Y-3.15
X4.55Y-2.95
X4.55Y-2.85
X4.55Y-2.75
X4.55Y-2.65
X4.55Y-3.05
X6.75Y-2.35
X6.65Y-2.35
X5.75Y-2.45
X5.75Y-2.35
X4.65Y-5.75
X4.75Y-5.75
X4.85Y-5.75
X4.65Y-5.85
X4.95Y-5.85
X4.85Y-5.85
X4.75Y-5.85
X4.95Y-5.75
X5.15Y-5.85
X5.05Y-5.75
X5.35Y-5.75
X5.15Y-5.75
X5.45Y-5.75
X5.55Y-5.75
X6.55Y-5.95
X6.95Y-5.95
X6.75Y-4.35
X7.05Y-5.95
X7.35Y-5.95
X7.15Y-5.95
X7.45Y-5.95
X7.55Y-5.95
X7.25Y-5.95
X7.65Y-5.95
X6.85Y-4.95
X7.15Y-5.65
X7.25Y-5.65
X6.95Y-5.65
X7.35Y-5.65
X7.35Y-5.25
X7.15Y-5.35
X7.25Y-5.35
X6.95Y-5.25
X7.35Y-5.35
X6.95Y-5.35
X7.05Y-5.35
X6.75Y-5.35
X7.25Y-5.25
X7.15Y-5.25
X6.85Y-5.25
X7.05Y-5.25
X6.75Y-5.25
X6.85Y-5.35
X6.05Y-5.05
X6.35Y-5.05
X6.45Y-5.05
X6.55Y-5.05
X6.05Y-5.15
X7.95Y-2.85
X7.95Y-2.75
X7.95Y-2.65
X7.95Y-3.05
X7.85Y-3.15
X7.85Y-2.95
X7.85Y-2.85
X7.85Y-2.75
X7.85Y-2.65
X7.85Y-3.05
X7.75Y-3.15
X7.75Y-2.95
X7.75Y-2.85
X7.75Y-3.25
X7.75Y-3.35
X7.75Y-2.75
X7.75Y-2.65
X7.75Y-3.65
X7.75Y-3.75
X7.75Y-3.55
X7.75Y-3.45
X7.75Y-3.05
X5.75Y-3.65
X5.85Y-3.65
X6.95Y-3.35
X6.75Y-3.45
X6.85Y-3.45
X6.55Y-3.35
X6.95Y-3.45
X6.55Y-3.45
X6.65Y-3.45
X6.35Y-3.45
X6.25Y-3.45
X6.85Y-3.35
X6.75Y-3.35
X6.45Y-3.35
X6.65Y-3.35
X6.35Y-3.35
X6.25Y-3.35
X6.45Y-3.45
X5.85Y-3.35
X5.95Y-3.35
X6.05Y-3.35
X6.05Y-3.45
X5.95Y-3.45
X5.85Y-3.45
X7.65Y-3.15
X7.45Y-3.25
X7.55Y-3.25
X7.25Y-3.15
X7.65Y-3.25
X7.25Y-3.25
X7.35Y-3.25
X7.05Y-3.25
X7.55Y-3.15
X7.45Y-3.15
X7.15Y-3.15
X7.35Y-3.15
X7.05Y-3.15
X7.15Y-3.25
X5.75Y-3.45
X5.75Y-3.35
X6.95Y-3.15
X6.75Y-3.25
X6.85Y-3.25
X6.55Y-3.15
X6.95Y-3.25
X6.55Y-3.25
X6.65Y-3.25
X6.35Y-3.25
X6.25Y-3.25
X6.85Y-3.15
X6.75Y-3.15
X6.45Y-3.15
X6.65Y-3.15
X6.35Y-3.15
X6.25Y-3.15
X6.45Y-3.25
X5.85Y-3.15
X5.95Y-3.15
X6.05Y-3.15
X6.05Y-3.25
X5.95Y-3.25
X5.85Y-3.25
X5.75Y-3.15
X5.75Y-3.25
X7.15Y-3.45
X7.05Y-3.35
X7.35Y-3.35
X7.15Y-3.35
X7.45Y-3.35
X7.55Y-3.35
X7.05Y-3.45
X7.35Y-3.45
X7.25Y-3.45
X7.65Y-3.45
X7.85Y-5.25
X7.85Y-5.55
X7.85Y-5.65
X7.85Y-5.45
X7.85Y-5.35
X7.95Y-5.05
X7.95Y-4.85
X7.95Y-4.75
X7.95Y-4.65
X7.95Y-4.55
X7.95Y-4.95
X7.85Y-5.05
X7.85Y-4.85
X7.85Y-4.75
X7.85Y-4.65
X7.85Y-4.55
X7.85Y-4.95
X7.75Y-5.05
X7.75Y-4.85
X7.75Y-4.75
X7.75Y-5.15
X7.75Y-5.25
X7.75Y-4.65
X7.75Y-4.55
X5.05Y-5.15
X5.35Y-5.15
X5.25Y-5.15
X5.65Y-5.15
X5.25Y-5.05
X5.55Y-5.15
X5.45Y-5.15
X5.65Y-5.05
X4.45Y-5.35
X4.35Y-5.25
X4.65Y-5.25
X4.75Y-4.95
X4.95Y-4.85
X4.95Y-5.65
X4.85Y-5.65
X4.75Y-5.65
X4.65Y-5.65
X5.65Y-5.45
X5.45Y-5.55
X5.55Y-5.55
X5.25Y-5.45
X5.65Y-5.55
X5.25Y-5.55
X5.35Y-5.55
X5.05Y-5.55
X5.55Y-5.45
X5.45Y-5.45
X5.15Y-5.45
X5.35Y-5.45
X5.05Y-5.45
X5.15Y-5.55
X5.45Y-4.75
X5.65Y-4.65
X4.45Y-4.95
X4.35Y-4.85
X4.65Y-4.85
X4.45Y-4.85
X4.75Y-4.85
X4.85Y-4.85
X4.35Y-4.95
X4.65Y-4.95
X4.55Y-4.95
X4.95Y-4.95
X4.55Y-4.85
X4.85Y-4.95
X4.45Y-5.25
X4.75Y-5.25
X4.85Y-5.25
X7.05Y-2.75
X7.15Y-2.85
X5.75Y-3.05
X5.75Y-2.95
X6.95Y-2.75
X6.75Y-2.85
X6.85Y-2.85
X6.55Y-2.75
X6.95Y-2.85
X6.55Y-2.85
X6.65Y-2.85
X6.35Y-2.85
X6.25Y-2.85
X6.85Y-2.75
X6.75Y-2.75
X6.45Y-2.75
X6.65Y-2.75
X6.35Y-2.75
X6.25Y-2.75
X6.45Y-2.85
X5.85Y-2.75
X5.95Y-2.75
X6.05Y-2.75
X6.05Y-2.85
X5.95Y-2.85
X5.85Y-2.85
X5.75Y-2.75
X5.75Y-2.85
X7.15Y-3.05
X7.05Y-2.95
X7.35Y-2.95
X7.15Y-2.95
X7.45Y-2.95
X7.55Y-2.95
X7.05Y-3.05
X7.35Y-3.05
X7.25Y-3.05
X7.65Y-3.05
X7.25Y-2.95
X7.55Y-3.05
X7.45Y-3.05
X7.65Y-2.95
X7.65Y-2.55
X7.45Y-2.65
X7.55Y-2.65
X7.25Y-2.55
X7.65Y-2.65
X7.25Y-2.65
X7.35Y-2.65
X7.05Y-2.65
X7.55Y-2.55
X7.45Y-2.55
X7.15Y-2.55
X7.35Y-2.55
X7.05Y-2.55
X7.15Y-2.65
X6.95Y-2.55
X6.75Y-2.65
X6.85Y-2.65
X6.55Y-2.55
X6.95Y-2.65
X6.55Y-2.65
X6.65Y-2.65
X6.35Y-2.65
X6.25Y-2.65
X6.85Y-2.55
X6.75Y-2.55
X6.65Y-2.55
X6.45Y-2.65
X6.05Y-2.65
X5.95Y-2.65
X5.85Y-2.65
X5.75Y-2.55
X5.75Y-2.65
X7.65Y-2.35
X7.45Y-2.45
X7.55Y-2.45
X7.25Y-2.35
X7.65Y-2.45
X7.25Y-2.45
X7.35Y-2.45
X7.05Y-2.45
X7.55Y-2.35
X7.45Y-2.35
X7.15Y-2.35
X7.35Y-2.35
X7.05Y-2.35
X7.15Y-2.45
X6.95Y-2.35
X6.75Y-2.45
X6.85Y-2.45
X6.55Y-2.35
X6.95Y-2.45
X6.55Y-2.45
X6.65Y-2.45
X6.85Y-2.35
X7.25Y-3.35
X7.55Y-3.45
X7.45Y-3.45
X7.65Y-3.35
X7.65Y-3.75
X7.45Y-3.85
X7.55Y-3.85
X7.25Y-3.75
X7.65Y-3.85
X7.25Y-3.85
X7.35Y-3.85
X7.05Y-3.85
X7.55Y-3.75
X7.45Y-3.75
X7.15Y-3.75
X7.35Y-3.75
X7.05Y-3.75
X7.15Y-3.85
X5.75Y-3.55
X5.95Y-3.65
X6.05Y-3.65
X6.05Y-3.55
X5.95Y-3.55
X5.85Y-3.55
X6.45Y-3.65
X6.25Y-3.55
X6.35Y-3.55
X6.65Y-3.55
X6.45Y-3.55
X6.75Y-3.55
X6.85Y-3.55
X6.25Y-3.65
X6.35Y-3.65
X6.65Y-3.65
X6.55Y-3.65
X6.95Y-3.65
X6.55Y-3.55
X6.85Y-3.65
X6.75Y-3.65
X6.95Y-3.55
X7.15Y-3.65
X7.05Y-3.55
X7.35Y-3.55
X7.15Y-3.55
X7.45Y-3.55
X7.55Y-3.55
X7.05Y-3.65
X7.35Y-3.65
X7.25Y-3.65
X7.65Y-3.65
X7.25Y-3.55
X7.55Y-3.65
X7.45Y-3.65
X7.65Y-3.55
X6.65Y-3.75
X6.75Y-3.75
X6.85Y-3.75
X6.65Y-3.85
X6.95Y-3.85
X6.85Y-3.85
X6.75Y-3.85
X6.95Y-3.75
X6.95Y-2.95
X6.75Y-3.05
X6.85Y-3.05
X6.55Y-2.95
X6.95Y-3.05
X6.55Y-3.05
X6.65Y-3.05
X6.35Y-3.05
X6.25Y-3.05
X6.85Y-2.95
X6.75Y-2.95
X6.45Y-2.95
X6.65Y-2.95
X6.35Y-2.95
X6.25Y-2.95
X6.45Y-3.05
X5.85Y-2.95
X5.95Y-2.95
X6.05Y-2.95
X6.05Y-3.05
X5.95Y-3.05
X5.85Y-3.05
X7.65Y-2.75
X7.45Y-2.85
X7.55Y-2.85
X7.25Y-2.75
X7.65Y-2.85
X7.25Y-2.85
X7.35Y-2.85
X7.05Y-2.85
X7.55Y-2.75
X7.45Y-2.75
X7.15Y-2.75
X7.35Y-2.75
X6.65Y-5.35
X6.25Y-5.25
X6.55Y-5.35
X6.65Y-5.25
X6.45Y-5.35
X5.75Y-4.45
X5.75Y-4.35
X5.75Y-4.25
X5.75Y-4.05
X5.75Y-3.95
X5.75Y-3.85
X4.55Y-5.65
X4.35Y-5.65
X4.45Y-5.65
X5.95Y-5.15
X5.95Y-5.25
X5.95Y-5.55
X5.95Y-5.65
X5.95Y-5.45
X5.95Y-5.35
X5.85Y-5.15
X5.85Y-5.25
X5.85Y-5.55
X5.85Y-5.65
T2
X4.45Y-2.45
X4.45Y-5.85
X5.95Y-3.95
X5.9526Y-4.3526
X6.35Y-3.95
X6.35Y-4.35
X7.85Y-2.45
X7.85Y-5.85
T3
X4.45Y-4.35
X5.95Y-5.85
X6.35Y-5.85
X7.85Y-4.35
X7.85Y-3.95
X4.45Y-3.95
X6.35Y-2.45
X5.95Y-2.45
T0
M30
